<?xml version="1.0" standalone="no"?>
<!DOCTYPE svg PUBLIC "-//W3C//DTD SVG 20010904//EN"
 "http://www.w3.org/TR/2001/REC-SVG-20010904/DTD/svg10.dtd">
<svg version="1.0" xmlns="http://www.w3.org/2000/svg"
 width="112.000000pt" height="112.000000pt" viewBox="0 0 112.000000 112.000000"
 preserveAspectRatio="xMidYMid meet">
<metadata>
Created by potrace 1.11, written by Peter Selinger 2001-2013
</metadata>
<g transform="translate(0.000000,112.000000) scale(0.100000,-0.100000)"
fill="#000000" stroke="none">
<path d="M160 1033 l0 -88 149 0 c183 0 219 -7 265 -48 45 -42 63 -86 65 -167
l2 -65 -43 1 c-24 0 -48 1 -53 2 -6 1 -11 30 -11 64 -2 54 -6 65 -29 85 -24
21 -36 23 -143 23 l-117 0 0 -417 0 -418 225 0 225 0 62 29 c73 33 144 104
176 174 33 74 31 190 -6 264 -16 33 -49 76 -77 101 l-49 45 32 58 c28 52 32
68 32 139 0 67 -4 88 -27 130 -34 64 -90 118 -153 147 -47 22 -65 23 -287 26
l-238 4 0 -89z m461 -631 c36 -112 35 -145 -8 -160 -51 -17 -97 20 -87 70 3
20 58 188 61 188 1 0 16 -44 34 -98z"/>
</g>
</svg>
